<?xml version="1.0" standalone="no"?>
<!DOCTYPE svg PUBLIC "-//W3C//DTD SVG 20010904//EN"
 "http://www.w3.org/TR/2001/REC-SVG-20010904/DTD/svg10.dtd">
<svg version="1.0" xmlns="http://www.w3.org/2000/svg"
 width="165.000000pt" height="221.000000pt" viewBox="0 0 165.000000 221.000000"
 preserveAspectRatio="xMidYMid meet">
<metadata>
Created by potrace 1.16, written by Peter Selinger 2001-2019
</metadata>
<g transform="translate(0.000000,221.000000) scale(0.100000,-0.100000)"
fill="#000000" stroke="none">
<path d="M759 2132 c-13 -10 -36 -17 -51 -16 -20 2 -34 -6 -53 -28 l-25 -30
19 -36 c10 -21 29 -65 41 -100 20 -54 21 -66 10 -88 -7 -13 -19 -24 -26 -24
-17 0 -18 -188 -2 -207 8 -10 52 -13 164 -13 l154 0 0 88 c0 99 -7 132 -26
132 -15 0 -30 26 -29 50 1 8 9 29 18 47 9 18 17 40 17 49 0 10 10 28 21 40 19
21 20 27 9 53 -15 37 -50 61 -87 61 -16 0 -33 8 -39 18 -16 25 -84 28 -115 4z
m124 -302 c3 -11 2 -18 -3 -15 -4 3 -10 14 -13 25 -3 11 -2 18 3 15 4 -3 10
-14 13 -25z m-173 -34 c0 -2 -7 -7 -16 -10 -8 -3 -12 -2 -9 4 6 10 25 14 25 6z
m-28 -68 c-6 -6 -7 0 -4 19 5 21 7 23 10 9 2 -10 0 -22 -6 -28z m78 -16 l25
-11 -26 0 c-14 -1 -33 5 -44 12 -17 13 -17 14 1 12 10 -1 30 -7 44 -13z m147
-8 c-3 -3 -12 -4 -19 -1 -8 3 -5 6 6 6 11 1 17 -2 13 -5z m-217 -34 c0 -5 -5
-10 -11 -10 -5 0 -7 5 -4 10 3 6 8 10 11 10 2 0 4 -4 4 -10z"/>
<path d="M551 1639 c-44 -17 -117 -78 -134 -111 -9 -18 -19 -49 -22 -69 -3
-21 -12 -42 -19 -49 -12 -9 -13 -7 -9 10 3 11 9 23 14 26 16 10 9 26 -8 20 -9
-4 -21 -1 -26 6 -6 9 -7 8 -3 -5 4 -12 -2 -21 -17 -28 -12 -5 -34 -27 -47 -47
-14 -20 -33 -46 -42 -56 -29 -32 -24 -48 10 -33 15 6 33 17 40 24 7 7 19 13
25 12 7 0 2 -7 -10 -15 -12 -9 -32 -24 -44 -35 -12 -10 -25 -19 -29 -19 -4 0
-7 -6 -7 -14 0 -11 4 -11 26 0 14 8 33 14 41 14 47 1 186 116 153 127 -6 2 -9
12 -6 22 3 12 15 17 45 18 56 1 120 21 153 47 28 23 28 23 9 42 -11 11 -18 26
-16 32 2 7 -1 12 -8 12 -6 0 -8 5 -5 10 3 6 -1 10 -10 10 -11 0 -15 5 -11 15
7 20 -4 19 -21 -2 -13 -16 -13 -16 -3 5 15 32 9 41 -19 31z m-31 -69 c-8 -5
-19 -10 -25 -10 -5 0 -3 5 5 10 8 5 20 10 25 10 6 0 3 -5 -5 -10z"/>
<path d="M1070 1621 c16 -31 12 -42 -15 -37 -27 5 -34 -11 -13 -32 12 -12 4
-17 -35 -24 -17 -3 -17 -5 5 -29 30 -35 77 -58 133 -66 36 -5 50 -12 67 -37
32 -48 100 -105 116 -98 10 3 13 1 8 -6 -8 -13 23 -31 58 -34 14 -1 28 -9 31
-17 9 -23 -4 -26 -36 -7 l-30 18 7 -29 c12 -49 43 -107 79 -147 19 -22 35 -36
35 -32 0 4 7 1 15 -8 14 -14 21 -56 10 -56 -3 0 -17 12 -30 28 l-24 27 -1 -54
c0 -70 18 -127 50 -160 l26 -26 -21 -21 -22 -22 -13 37 -13 36 -24 -50 c-20
-43 -23 -63 -21 -135 3 -71 0 -85 -13 -88 -11 -2 -18 7 -23 29 l-6 33 -36 -35
c-40 -37 -68 -92 -79 -152 -4 -20 -12 -40 -18 -44 -6 -4 -8 2 -5 15 4 12 2 22
-3 22 -5 0 -9 6 -9 14 0 12 -6 12 -36 3 -44 -13 -128 -92 -120 -112 3 -8 -2
-28 -10 -44 -16 -32 -28 -43 -18 -16 4 8 1 15 -5 15 -6 0 -10 3 -10 8 4 23 -3
42 -15 42 -23 0 -99 -36 -125 -59 -24 -21 -41 -20 -41 3 0 8 -6 19 -14 25 -11
9 -16 6 -24 -19 -12 -34 -23 -37 -43 -14 -17 21 -76 50 -119 59 -34 7 -35 7
-17 -12 20 -23 22 -33 4 -33 -7 0 -20 13 -30 29 -28 47 -89 103 -135 123 -53
24 -63 17 -34 -22 28 -38 28 -40 -7 -30 -15 4 -34 4 -42 0 -7 -5 -17 -6 -21
-4 -15 9 -8 20 13 21 30 3 30 3 14 57 -19 62 -49 110 -86 137 l-29 20 0 -27
c0 -15 8 -36 17 -47 18 -19 17 -20 -7 -7 -44 22 -51 31 -39 46 21 26 -2 169
-37 222 l-18 27 -8 -33 c-6 -20 -5 -40 3 -53 19 -37 3 -30 -23 10 -20 31 -23
41 -12 45 7 3 24 27 37 53 27 54 43 128 25 117 -8 -5 -9 -1 -5 10 4 9 0 27 -8
39 -14 22 -12 25 20 56 37 35 62 75 76 123 7 27 -4 40 -15 16 -3 -7 -3 -1 0
15 4 15 2 27 -2 27 -14 -1 -39 -23 -52 -45 -10 -17 -11 -14 -12 24 0 38 -2 42
-16 30 -24 -20 -58 -90 -62 -129 -2 -19 -7 -42 -12 -50 -4 -8 -5 -21 -2 -29 3
-11 12 -7 31 15 14 16 22 24 17 17 -12 -18 9 -17 24 2 7 8 17 15 23 15 6 0
-11 -16 -36 -36 -26 -20 -44 -41 -41 -46 3 -5 12 -4 20 3 21 17 30 2 12 -18
-11 -13 -14 -33 -11 -65 2 -26 -1 -49 -7 -53 -7 -4 -9 7 -6 31 3 22 -2 52 -11
73 l-15 36 -18 -50 c-17 -45 -19 -47 -19 -19 -1 29 -16 54 -33 54 -24 0 -2
-131 29 -175 13 -19 14 -18 8 10 l-6 30 17 -33 17 -34 14 29 c7 15 11 19 8 8
-4 -18 -3 -17 15 4 29 33 25 11 -5 -29 -14 -19 -25 -47 -25 -63 0 -27 -2 -29
-30 -23 -37 7 -37 0 -4 -69 19 -38 42 -65 79 -92 29 -21 58 -48 64 -61 13 -27
14 -43 2 -24 -5 8 -22 12 -42 10 l-34 -3 31 -32 c17 -18 29 -34 27 -37 -17
-17 145 -84 169 -70 4 3 23 -9 40 -26 28 -27 29 -29 7 -16 -22 14 -30 14 -52
3 l-26 -13 22 -25 c29 -33 91 -57 150 -56 36 0 53 -5 67 -21 22 -24 93 -46
121 -39 26 7 24 -8 -2 -27 -21 -14 -21 -16 -5 -40 20 -32 21 -32 63 0 21 16
40 23 52 19 11 -3 22 -1 26 5 4 7 20 -1 41 -20 39 -34 47 -36 63 -16 8 10 9
16 1 21 -6 3 -8 10 -6 14 3 4 -6 14 -19 21 -36 19 -31 25 23 26 57 1 122 21
119 37 -1 7 25 14 70 19 67 7 144 35 158 57 3 6 -4 19 -16 30 -27 25 -19 37
28 44 52 9 143 57 165 87 21 29 16 56 -13 63 -20 5 -17 37 4 37 19 0 77 51
101 88 28 44 43 98 25 86 -8 -5 -10 -2 -6 8 8 22 -2 29 -23 18 -14 -7 -19 -5
-23 11 -3 12 -3 18 0 15 8 -8 40 36 63 86 23 50 26 130 7 146 -10 9 -19 8 -34
-3 -18 -13 -22 -13 -27 0 -3 8 -1 27 4 41 22 58 9 179 -26 232 l-17 25 -17
-33 c-17 -32 -18 -33 -29 -12 -6 11 -11 30 -11 41 0 11 -4 22 -9 25 -5 3 -13
25 -19 49 -12 46 -70 130 -98 141 -13 5 -16 1 -12 -28 3 -32 3 -33 -19 -23
-13 6 -34 29 -48 53 -28 48 -70 86 -126 114 -50 26 -63 26 -49 1z m200 -200
c0 -5 -9 -7 -20 -4 -11 3 -20 7 -20 9 0 2 9 4 20 4 11 0 20 -4 20 -9z m140
-81 c11 -22 18 -40 15 -40 -2 0 -14 18 -25 40 -11 22 -18 40 -15 40 2 0 14
-18 25 -40z m-59 -17 c13 -16 12 -17 -3 -4 -10 7 -18 15 -18 17 0 8 8 3 21
-13z m-1113 -193 c-7 -10 -14 -17 -17 -15 -4 4 18 35 25 35 2 0 -1 -9 -8 -20z
m-45 -5 c-3 -9 -8 -14 -10 -11 -3 3 -2 9 2 15 9 16 15 13 8 -4z m7 -219 c0 -2
-8 -10 -17 -17 -16 -13 -17 -12 -4 4 13 16 21 21 21 13z m8 -231 c-3 -3 -9 2
-12 12 -6 14 -5 15 5 6 7 -7 10 -15 7 -18z m4 -117 c-5 -5 -16 0 -28 13 -19
22 -19 22 4 15 12 -4 22 -4 21 1 -1 4 0 17 1 28 2 11 5 5 7 -14 3 -18 0 -38
-5 -43z m93 -138 c3 -6 -1 -7 -9 -4 -18 7 -21 14 -7 14 6 0 13 -4 16 -10z"/>
<path d="M313 1498 c-7 -8 -9 -19 -5 -23 4 -5 2 -5 -4 -2 -15 9 -38 -19 -63
-73 -24 -53 -28 -90 -4 -42 9 18 34 48 55 67 31 26 39 39 36 61 -3 23 -5 25
-15 12z"/>
<path d="M675 1421 c-211 -60 -370 -264 -380 -486 -7 -152 51 -296 167 -415
64 -66 135 -120 98 -75 -14 17 -14 17 7 5 12 -8 21 -18 20 -24 -3 -14 87 -47
169 -62 113 -20 190 -10 299 40 177 82 305 270 309 451 3 173 -50 310 -165
427 -134 137 -341 192 -524 139z m-12 -47 c-4 -11 1 -22 12 -30 20 -15 16 -18
-9 -8 -16 6 -22 35 -9 47 11 11 13 8 6 -9z m-37 -3 c-4 -5 -2 -21 4 -35 13
-35 4 -33 -15 3 -11 23 -12 31 -2 34 18 8 19 8 13 -2z m81 -23 c-3 -7 -5 -2
-5 12 0 14 2 19 5 13 2 -7 2 -19 0 -25z m30 10 c-3 -8 -6 -5 -6 6 -1 11 2 17
5 13 3 -3 4 -12 1 -19z m-180 -32 c-7 -15 -16 -21 -21 -16 -6 6 -4 15 4 25 19
23 29 18 17 -9z m39 -17 c7 -11 -12 -29 -31 -29 -5 1 -1 6 10 12 19 11 19 11
0 19 -16 6 -17 8 -3 8 9 1 20 -4 24 -10z m-86 -39 c27 -27 25 -33 -7 -25 -23
5 -26 4 -15 -6 23 -24 12 -32 -13 -9 -32 30 -32 38 3 32 24 -5 26 -4 13 11
-19 24 -5 21 19 -3z m-73 -52 c-1 -18 3 -23 19 -22 14 0 20 -4 17 -13 -7 -18
-21 -16 -47 5 -18 14 -21 21 -12 35 15 24 26 21 23 -5z m23 -2 c0 -3 -4 -8
-10 -11 -5 -3 -10 -1 -10 4 0 6 5 11 10 11 6 0 10 -2 10 -4z m42 -67 c-17 -23
-29 -47 -25 -52 3 -6 2 -7 -4 -4 -15 9 -38 -62 -24 -76 6 -6 11 -15 11 -21 0
-5 -6 -2 -13 8 -12 16 -13 16 -15 -6 -8 -105 10 -244 30 -231 7 4 9 0 5 -10
-3 -9 -2 -19 3 -22 12 -7 13 -25 2 -25 -15 0 -44 95 -52 168 -4 40 -4 93 1
118 10 52 48 133 79 166 11 12 20 26 20 32 0 5 3 7 6 3 4 -3 -7 -25 -24 -48z
m-109 9 c-5 -23 -5 -23 11 -3 17 20 17 20 10 -5 -7 -25 -7 -25 15 -6 24 21 28
11 7 -17 -14 -18 -16 -18 -40 -2 -29 19 -28 18 -20 39 9 24 23 19 17 -6z m239
-11 c-12 -13 -19 -27 -15 -32 5 -4 3 -5 -3 -2 -7 4 -14 0 -18 -8 -3 -8 -1 -15
4 -15 17 0 11 -25 -10 -48 -11 -12 -26 -19 -34 -16 -8 3 -17 -3 -20 -14 -9
-26 -4 -92 6 -93 28 -5 58 -20 58 -30 0 -5 -5 -8 -12 -6 -6 1 -18 -20 -26 -47
-13 -45 -13 -51 2 -61 9 -7 13 -15 9 -18 -3 -4 -1 -7 5 -7 6 0 9 -7 6 -15 -7
-16 12 -45 29 -45 5 0 2 9 -8 20 -18 20 -18 21 1 35 10 8 22 15 26 15 3 0 16
16 28 36 13 20 28 33 35 30 17 -6 40 21 49 55 3 15 13 30 23 33 15 6 15 4 -2
-14 -18 -19 -18 -21 1 -42 10 -12 13 -18 6 -14 -13 8 -47 -27 -47 -46 0 -4
-10 -15 -23 -23 -12 -9 -19 -21 -16 -27 4 -6 2 -8 -3 -5 -14 9 -31 -13 -28
-35 2 -11 -2 -15 -11 -11 -8 3 -14 0 -14 -6 0 -6 5 -11 10 -11 6 0 10 -4 10
-10 0 -5 -6 -10 -12 -10 -23 1 -66 47 -99 105 -30 53 -32 64 -32 144 1 106 20
157 84 219 46 44 79 59 41 19z m-239 -55 c19 -8 17 -10 -15 -9 -43 1 -42 0
-26 30 10 18 13 19 16 6 1 -9 13 -21 25 -27z m311 -14 c-2 -4 0 -9 6 -13 6 -4
7 -11 4 -17 -4 -6 -2 -8 4 -4 12 7 54 -42 46 -55 -3 -5 0 -8 7 -7 7 2 14 -7
15 -19 1 -15 -3 -20 -11 -15 -14 8 -115 127 -115 135 0 3 11 4 24 3 13 0 22
-4 20 -8z m209 -48 c-42 -52 -83 -78 -83 -51 0 14 26 32 35 23 5 -4 5 -2 2 4
-8 14 31 66 44 58 5 -3 9 -2 8 3 -3 18 2 23 21 23 18 0 14 -9 -27 -60z m-542
25 c33 -14 33 -15 10 -21 -23 -7 -23 -8 -6 -21 14 -9 15 -13 4 -13 -24 0 -59
12 -59 20 0 4 10 11 23 15 19 6 19 8 5 12 -10 2 -18 9 -18 14 0 12 2 12 41 -6z
m96 -27 c-3 -8 -6 -5 -6 6 -1 11 2 17 5 13 3 -3 4 -12 1 -19z m196 -14 c-3 -8
-10 -14 -15 -14 -7 0 -6 5 1 13 8 10 7 17 -2 27 -10 12 -9 12 5 1 9 -7 14 -19
11 -27z m-33 6 c0 -5 -4 -10 -10 -10 -5 0 -10 5 -10 10 0 6 5 10 10 10 6 0 10
-4 10 -10z m-36 -57 c-2 -18 3 -23 19 -23 12 0 29 -5 37 -10 12 -8 11 -10 -6
-10 -33 0 -81 19 -81 33 0 7 -3 22 -7 34 -6 20 -5 21 17 10 16 -8 23 -18 21
-34z m-218 -3 c-1 -35 1 -34 -38 -14 -32 17 -28 30 12 37 14 2 25 5 26 6 1 0
1 -12 0 -29z m-49 -54 c-3 -7 0 -19 6 -25 15 -15 38 5 30 26 -4 11 -2 14 5 9
19 -12 14 -44 -9 -51 -26 -8 -54 16 -46 39 4 9 9 16 13 16 3 0 4 -6 1 -14z
m316 -50 c-1 -30 1 -35 12 -26 7 6 12 24 11 40 -1 20 3 30 12 30 11 0 13 -8 8
-31 -6 -31 -34 -62 -47 -53 -4 2 -12 -11 -19 -29 l-11 -32 -15 34 c-16 39 -18
61 -4 61 6 0 10 -4 10 -10 0 -5 6 -10 13 -10 19 0 17 30 -2 31 -9 1 -5 5 9 9
14 4 19 8 13 9 -7 1 -13 6 -13 12 0 6 6 9 13 6 7 -2 11 -19 10 -41z m234 17
c-9 -9 13 -34 24 -27 5 3 6 -2 3 -11 -4 -10 -2 -14 7 -10 20 7 40 -8 42 -32 0
-11 8 -20 16 -19 10 1 16 -8 17 -22 2 -26 11 -39 21 -28 4 4 1 11 -7 16 -8 6
-10 10 -4 10 6 0 17 -6 23 -14 9 -10 8 -16 -4 -26 -13 -11 -19 -10 -36 5 -11
11 -18 24 -15 31 3 7 0 11 -7 8 -12 -4 -32 13 -82 70 -19 22 -22 32 -14 42 6
8 14 14 17 14 3 0 2 -3 -1 -7z m-157 -24 c-7 -11 -14 -18 -17 -15 -3 3 0 12 7
21 18 21 23 19 10 -6z m63 -49 c-3 -12 -8 -19 -11 -16 -5 6 5 36 12 36 2 0 2
-9 -1 -20z m-3 -50 c0 -5 -5 -10 -11 -10 -5 0 -7 5 -4 10 3 6 8 10 11 10 2 0
4 -4 4 -10z m-258 -92 c12 -17 17 -28 10 -25 -6 4 -21 22 -34 39 -12 17 -17
28 -10 25 6 -4 21 -22 34 -39z m78 -13 c16 -19 0 -19 -26 0 -16 12 -16 14 -3
15 9 0 22 -7 29 -15z m22 -61 c11 2 15 -1 11 -10 -3 -9 2 -14 15 -14 12 0 23
-4 27 -9 3 -6 -6 -6 -24 -1 -34 9 -101 57 -101 72 0 5 12 -3 28 -17 15 -14 35
-24 44 -21z m-54 -39 c19 -9 32 -19 29 -21 -7 -7 -97 49 -97 60 0 5 8 2 18 -6
9 -9 32 -23 50 -33z m-53 4 c11 -16 1 -19 -13 -3 -7 8 -8 14 -3 14 5 0 13 -5
16 -11z m209 -18 c4 -5 -3 -7 -14 -4 -23 6 -26 13 -6 13 8 0 17 -4 20 -9z
m-174 -16 c-7 -9 -15 -13 -19 -10 -3 3 1 10 9 15 21 14 24 12 10 -5z m90 -5
c13 -8 12 -10 -2 -10 -10 0 -18 -4 -18 -10 0 -5 -5 -10 -11 -10 -8 0 -9 4 0
13 6 8 8 17 4 20 -10 10 10 8 27 -3z m43 -16 c13 -5 12 -9 -5 -26 -11 -11 -22
-18 -24 -15 -3 3 2 12 10 20 12 12 13 17 3 20 -17 7 -2 8 16 1z"/>
<path d="M525 890 c3 -5 8 -10 11 -10 2 0 4 5 4 10 0 6 -5 10 -11 10 -5 0 -7
-4 -4 -10z"/>
<path d="M720 1026 c0 -2 8 -10 18 -17 15 -13 16 -12 3 4 -13 16 -21 21 -21
13z"/>
<path d="M889 1033 c-13 -16 -12 -17 4 -4 9 7 17 15 17 17 0 8 -8 3 -21 -13z"/>
<path d="M120 1253 c-7 -16 -14 -62 -16 -103 -3 -52 -1 -69 5 -55 5 11 10 30
10 43 1 12 10 41 21 63 19 37 20 79 1 79 -4 0 -14 -12 -21 -27z"/>
<path d="M1047 313 c-4 -3 -7 -11 -7 -17 0 -6 5 -5 12 2 6 6 9 14 7 17 -3 3
-9 2 -12 -2z"/>
</g>
</svg>
