<?xml version="1.0" standalone="no"?>
<!DOCTYPE svg PUBLIC "-//W3C//DTD SVG 20010904//EN"
 "http://www.w3.org/TR/2001/REC-SVG-20010904/DTD/svg10.dtd">
<svg version="1.0" xmlns="http://www.w3.org/2000/svg"
 width="200.000000pt" height="76.000000pt" viewBox="0 0 200.000000 76.000000"
 preserveAspectRatio="xMidYMid meet">
<metadata>
Created by potrace 1.16, written by Peter Selinger 2001-2019
</metadata>
<g transform="translate(0.000000,76.000000) scale(0.100000,-0.100000)"
fill="#000000" stroke="none">
<path d="M750 664 c-14 -2 -68 -11 -120 -20 -52 -9 -149 -32 -215 -51 -82 -24
-143 -35 -192 -36 -40 -1 -73 -5 -73 -8 0 -13 38 -39 58 -39 22 0 210 48 225
57 16 10 111 34 167 43 30 4 93 15 140 24 173 33 358 -6 519 -109 33 -21 51
-23 211 -28 l175 -5 -70 18 c-42 11 -106 19 -160 19 -70 1 -98 5 -125 21 -33
18 -99 50 -145 70 -62 27 -151 43 -255 46 -63 1 -126 1 -140 -2z"/>
<path d="M1123 514 c-11 -24 -10 -24 39 -24 l51 0 -24 18 c-40 31 -54 32 -66
6z"/>
<path d="M110 479 c0 -33 16 -36 34 -6 8 13 7 20 -4 27 -24 16 -30 12 -30 -21z"/>
<path d="M1068 493 c6 -2 18 -2 25 0 6 3 1 5 -13 5 -14 0 -19 -2 -12 -5z"/>
<path d="M1710 426 c0 -8 14 -15 35 -18 39 -4 46 6 16 22 -27 14 -51 13 -51
-4z"/>
<path d="M620 422 c0 -19 148 -112 178 -112 10 0 22 -4 27 -9 6 -6 52 -15 103
-22 88 -11 194 -6 322 17 l35 6 -25 -21 c-47 -38 -126 -56 -252 -56 -64 0
-114 -3 -112 -7 2 -3 48 -16 102 -29 173 -39 411 -23 405 27 -1 11 -4 32 -7
48 -5 32 15 89 41 118 15 17 14 18 -9 18 -14 0 -42 7 -61 15 -46 19 -167 19
-272 1 -145 -26 -212 -36 -246 -36 -43 0 -159 24 -187 39 -25 13 -42 14 -42 3z"/>
<path d="M383 403 c-29 -20 -30 -38 -2 -21 12 7 31 19 43 25 20 12 20 13 1 12
-11 0 -30 -7 -42 -16z"/>
<path d="M434 381 c-46 -28 -64 -59 -64 -111 0 -40 5 -51 36 -81 30 -30 42
-34 85 -34 46 0 54 4 85 37 55 61 44 138 -25 185 -41 28 -76 29 -117 4z m127
-52 c28 -33 24 -75 -10 -110 -49 -48 -116 -31 -141 37 -15 39 15 92 60 106 24
8 70 -9 91 -33z"/>
<path d="M1496 386 c-32 -15 -76 -79 -76 -114 0 -37 42 -90 85 -108 54 -21 96
-12 134 32 38 42 41 89 10 143 -31 55 -91 74 -153 47z m117 -58 c24 -25 28
-36 23 -62 -14 -74 -96 -99 -147 -45 -34 37 -37 67 -8 103 42 53 85 55 132 4z"/>
<path d="M105 351 c-3 -5 -1 -29 4 -53 10 -44 51 -88 81 -88 11 0 12 2 2 8
-26 17 -62 77 -62 103 0 29 -14 46 -25 30z"/>
<path d="M1776 311 c-12 -13 -20 -37 -20 -64 -1 -39 1 -42 27 -45 30 -4 35 9
12 28 -18 15 -20 51 -4 67 6 6 10 16 7 23 -2 7 -11 4 -22 -9z"/>
</g>
</svg>
